PathFileType	4	(X/Y/Z)	Patient4_TMGait_0pt6_02_right_06.trc.trc
DataRate	CameraRate	NumFrames	NumMarkers	Units	OrigDataRate	OrigDataStartFrame	OrigNumFrames
82.352941176471	82.352941176471	7	33	mm	82.352941176471	36	       141
Frame#	Time	Sacral			L.Shoulder			Chest			R.Shoulder			Neck			R.ASIS			L.ASIS			R.Thigh.Superior			R.Thigh.Lateral			R.Thigh.Inferior			R.Patella			L.Thigh.Superior			L.Thigh.Lateral			L.Thigh.Inferior			L.Patella			L.Shank.Superior			L.Shank.Lateral			L.Shank.Inferior			R.Shank.Superior			R.Shank.Lateral			R.Shank.Inferior			R.Heel			R.Midfoot.Superior			R.Midfoot.Lateral			R.Toe			L.Heel			L.Midfoot.Lateral			L.Midfoot.Superior			L.Toe			L.Elbow			L.Wrist			R.Elbow			R.Wrist			
		X1	Y1	Z1	X2	Y2	Z2	X3	Y3	Z3	X4	Y4	Z4	X5	Y5	Z5	X6	Y6	Z6	X7	Y7	Z7	X8	Y8	Z8	X9	Y9	Z9	X10	Y10	Z10	X11	Y11	Z11	X12	Y12	Z12	X13	Y13	Z13	X14	Y14	Z14	X15	Y15	Z15	X16	Y16	Z16	X17	Y17	Z17	X18	Y18	Z18	X19	Y19	Z19	X20	Y20	Z20	X21	Y21	Z21	X22	Y22	Z22	X23	Y23	Z23	X24	Y24	Z24	X25	Y25	Z25	X26	Y26	Z26	X27	Y27	Z27	X28	Y28	Z28	X29	Y29	Z29	X30	Y30	Z30	X31	Y31	Z31	X32	Y32	Z32	X33	Y33	Z33	

36	7.075000000000	717.598164031385	1003.287223602118	507.665143518219	890.175343935622	1438.367340482417	343.693552321596	994.118912784621	1364.184154587932	502.252928754228	907.057632752773	1428.285783199729	677.311369273422	870.621623910802	1491.813854148903	500.369253124108	943.649853432987	940.722797607153	626.230489205015	931.282453529760	960.304845723661	352.634714476269	1002.103092050630	747.715636001153	600.996785362838	927.477702697194	633.214446696844	654.514893489251	1013.599978445409	589.223020538969	577.760959953025	1021.375434033238	501.286489644250	583.023182222813	973.968616414545	740.887517213920	374.836263639092	888.981554732947	625.485575224473	308.849484277206	977.184425701755	541.594742759480	364.389258799927	969.315309297884	455.310230415334	361.743577238252	899.972510914633	397.159412577849	358.942051630030	757.588607757907	354.814369746435	314.505555451153	744.542521450090	228.815476827913	374.825539938377	1000.447546319810	410.816509669012	588.369824635766	934.315645318785	300.025171425192	643.328833864182	989.845958651560	210.724909905585	582.278606039063	870.548628016539	41.617901058713	540.469567628348	1039.144241412080	98.926709569412	583.021515141705	950.970062099458	36.404749288530	618.928573501443	1158.747905121366	49.097670823816	615.214566325187	554.447475014424	158.390763560776	421.086314817478	610.249361451633	121.657753411512	335.365391649992	715.300317754928	134.533991166604	352.579740270543	797.541629132015	35.291613647588	313.039403438668	890.776863238971	1085.687291126478	221.353759994592	1075.298590953978	900.870849296815	230.263688957141	831.339067889921	1082.433125809687	774.367145323708	870.300324673418	824.004759108428	771.997847930373	
37	7.087142857143	717.827766793755	1004.457177707390	510.681519131053	888.645996290889	1439.454955710393	345.229699970568	994.048161197203	1365.480888056962	502.951519954166	908.555202681446	1429.537090518021	678.751164736180	870.574297255887	1492.851417367349	502.369874839827	944.292762768707	941.898003955312	627.544921321497	930.560162635238	961.526780877453	354.075441045418	1000.008321519469	746.998601382980	602.831238804294	923.987472936762	633.416011407480	656.031076451537	1009.299200756796	588.514988872800	578.869832220226	1016.056684670738	500.731836207211	583.916667852860	978.056894792181	744.646188128386	376.258679551418	897.042078244793	627.403947424872	309.365475409427	987.764298649765	545.465357075395	364.668455001093	981.460593343145	458.284506298230	361.617579067475	911.049542914026	399.843613477547	358.882339521934	767.456751176343	360.788973253244	314.798245846402	751.880838833483	234.864569679575	374.759015395295	994.668722872034	410.512241430379	589.265628344442	927.953739009476	299.939966541519	643.787028022283	983.152635199133	210.544356421970	582.689391496091	863.403905203585	41.512331008393	540.681510514124	1031.965338977749	98.942845289432	583.357227749783	943.811847583405	36.356864560857	619.111863930509	1151.518736398996	49.287447052399	615.418561206021	559.934521067811	169.600334390149	421.193406809549	614.581871103015	131.508634357738	335.150555222474	720.389283278884	140.519577796490	352.341928544142	799.099585556488	36.976107251797	312.040822612846	886.548717265278	1086.099812022113	224.736155902639	1061.548819905969	891.549397131276	231.310252592830	839.350076992412	1082.182571242514	777.311337159641	888.692620393132	825.422015707849	772.597444819009	
38	7.099285714286	717.883696425073	1005.534388549513	513.533200459694	887.013126310477	1440.337176924554	346.605071896961	993.918516981726	1366.598675317354	503.459231037461	910.080807610539	1430.664696572813	680.028296989162	870.482759686258	1493.751150730094	504.159958542926	944.775560433145	942.848914357405	628.812330497255	929.687378501829	962.569330281275	355.477468636005	997.783261481949	746.235141979653	604.371084644637	920.543104611240	633.544677605319	657.436673418372	1004.953495993252	587.784872426141	579.774172313703	1010.701532491167	500.152330320211	584.656204260522	981.803808698152	748.468804968814	377.627952817261	904.615997288601	629.639782942289	309.791556548504	997.648682135880	549.705702172464	364.965585725658	993.087186076331	461.778389219776	361.541231284997	922.020036544910	402.870540632079	358.775685774861	777.574940518737	366.173880407206	314.994875185186	760.280917346888	240.233444561104	374.564304128207	988.916492072511	410.169710073284	589.996624403805	921.684163259257	299.825837913951	644.158671487203	976.492913145873	210.325292972941	582.985641775435	856.238482212621	41.444733042449	540.859183281344	1024.821028692892	98.847183481011	583.667687327997	936.626518400662	36.318765914851	619.264826137151	1144.286226106073	49.336882656402	615.591964973420	567.163005470000	178.528110335920	421.202288816912	620.912258582834	139.691736438127	334.802360303713	727.206076548671	145.875411849207	351.943979780935	803.325479119624	39.092745507721	310.771810569611	881.911072506299	1086.362611369881	227.785434120557	1046.983242919866	882.836176607394	232.223162469651	847.478649288748	1082.039550317191	780.341876223959	907.765291968352	827.531447231474	773.121595803895	
39	7.111428571429	717.761007993556	1006.503249671935	516.207403489350	885.334864077068	1441.012681088082	347.833395236125	993.745047522570	1367.515712181261	503.808668377097	911.618028416509	1431.671853956829	681.146733733335	870.365265195344	1494.516560705939	505.723942015950	945.107182775880	943.584336782125	630.060831629939	928.673637053286	963.452993838045	356.861555458564	995.547223183998	745.483489901217	605.600626427229	917.256768422404	633.617146886883	658.705799612351	1000.708507262114	587.059023289314	580.483000100521	1005.467253014712	499.556692557680	585.235146998379	985.177537324721	752.326119391016	378.987959964907	911.688332880807	632.155434983752	310.157930501406	1006.819125419479	554.255939242650	365.301927819258	1004.156392021543	465.736374066974	361.497527696103	932.856916102332	406.174772893135	358.617074281548	787.915267250719	370.790999725344	315.070338496299	769.809881305879	244.704979047103	374.205392312463	983.313821019962	409.791284895947	590.554972724257	915.600105027038	299.705844391211	644.462979781526	969.909864218705	210.065706892274	583.166531259075	849.035845664893	41.417442322443	541.006368709773	1017.682485458789	98.671157083235	583.928018344139	929.402457486649	36.293063690649	619.389091942317	1137.043459109578	49.252447176458	615.736462394533	576.169788100862	184.823537328554	421.034332789376	629.336235703787	145.824489179955	334.274037281630	735.888655399649	150.307063504705	351.343145312818	810.466584010455	41.450035345458	309.277730044646	876.841887239027	1086.491051438846	230.513142695285	1031.676486045058	874.784484039405	232.994095931743	855.710086762871	1082.004986638929	783.398863857948	927.440092559008	830.426319831477	773.522952268484	
40	7.123571428571	717.463345273340	1007.352843591475	518.708286985502	883.654676555135	1441.493584489874	348.934892146085	993.534455041146	1368.225565317469	504.035218552829	913.143313446308	1432.568074363079	682.116232973839	870.235989863781	1495.157421362708	507.061125262179	945.300493476766	944.126098874295	631.296327438545	927.523500190039	964.211036385289	358.231220022451	993.392121619036	744.778319907328	606.527599021068	914.196334768448	633.644132694003	659.815527651775	996.666401602395	586.353179397142	581.011289277851	1000.466494058660	498.948401380673	585.650751543480	988.161661601679	756.194539393007	380.366158302966	918.266946692598	634.905252772689	310.491141924928	1015.285255869940	559.049680062930	365.691771749951	1014.649201868739	470.096897847456	361.476384788742	943.546718097033	409.688223687182	358.406489395216	798.464295509570	374.503098626271	315.006155837631	780.515573868081	248.123030098012	373.659690409045	977.943259147238	409.378172176157	590.939813797262	909.761820239791	299.595472874097	644.716846129573	963.431899801129	209.766793464294	583.235305453014	841.791527390732	41.428175227576	541.125565690828	1010.530459538534	98.446902923572	584.122580641940	922.139868042791	36.280566899317	619.486195169259	1129.791085057577	49.051865366238	615.856674967696	586.968963584700	188.289829829643	420.623748674070	639.903073805024	149.659738277695	333.529764755817	746.529593581098	153.586238095291	350.516843180605	820.656789410762	43.825844044237	307.615727473343	871.336226128177	1086.518302365412	232.945540673012	1015.717054616816	867.432593777115	233.626985932205	864.028702726210	1082.081763127123	786.422463912606	947.640591562805	834.205218471758	773.749570881462	
41	7.135714285714	717.002519807402	1008.076450620394	521.051746596408	881.997653191800	1441.800864093266	349.934037274692	993.286106864825	1368.734446060344	504.172827550440	914.630553181690	1433.362891010743	682.951941335778	870.104518724915	1495.686108793855	508.185047923178	945.369068303313	944.502645044219	632.500920687617	926.236826479683	964.881187973442	359.573006042497	991.373841976788	744.133908252798	607.174903845302	911.391515368439	633.632263722816	660.750047338186	992.884109282428	585.674142534416	581.378157989098	995.764237266456	498.327458456612	585.907412804959	990.752804173614	760.051834423877	381.768338092412	924.367038501529	637.835431052986	310.811506903903	1023.067971805674	564.013331277299	366.142238491134	1024.552674924543	474.791231029670	361.474418771525	954.075079710245	413.343943173087	358.147466273217	809.210437128934	377.220970174782	314.795767678114	792.415383665049	250.401381762888	372.919305656189	972.846217465497	408.930399493584	591.158205130737	904.196607634809	299.502156513968	644.934457761556	957.072859006394	209.431683942874	583.198962412716	834.509630801157	41.471992064767	541.218035547769	1003.355360116170	98.201836435005	584.245713362581	914.846446656366	36.280775996661	619.557702999463	1122.534023443874	48.757375247654	615.958803400617	599.555859333458	188.880855861888	419.929940411244	652.613751822662	151.094737173694	332.551026996952	759.164773557017	155.572385267801	349.461480456520	833.908842561371	46.014153309207	305.839770946697	865.407683127340	1086.486572464349	235.118029183987	999.209262878011	860.805664329799	234.139520598666	872.418001803793	1082.269400982636	789.355870196406	968.287084770984	838.965767984758	773.748622683276	
42	7.147857142857	716.396780953163	1008.671368380848	523.259784010715	880.371253764949	1441.960469380898	350.856665234581	992.994626738564	1369.057613670239	504.250165274840	916.056134776445	1434.061739177287	683.672794197510	869.976206952051	1496.114957663702	509.121066245364	945.324635350558	944.743508733134	633.637765200978	924.810595010494	965.498222613580	360.860215969760	989.510819547673	743.550855240993	607.571582313914	908.841390223414	633.586065318966	661.503830897815	989.376295388923	585.022202415288	581.604638657450	991.380467301734	497.692571241966	586.017753736935	992.957252772477	763.873309371544	383.179476545935	929.998232234071	640.884583553436	311.130998306742	1030.185617853385	569.065855698077	366.653423525412	1033.849431755661	479.743097921503	361.491742157922	964.415854797282	417.079394820529	357.844055869593	820.134462215801	378.905334909257	314.446849551958	805.491272826663	251.525747828918	371.989496026816	968.026293093339	408.447432091882	591.225636530692	898.900791458023	299.426281871831	645.126932592615	950.833043803956	209.064594875957	583.068786278130	827.199332044875	41.542688918797	541.284400109499	996.155479373356	97.956082850976	584.300461878892	907.533316212170	36.292436813677	619.605646826373	1115.278374285994	48.391191737817	616.049248093803	613.911957045069	186.687052019461	418.944880968490	667.423916044761	150.166384549500	331.339830504821	773.769855241249	156.223238646303	348.188642652188	850.119911845174	47.866273103838	303.988520655217	859.087592096554	1086.439837486901	237.069915619871	982.272765349295	854.917053118721	234.562581089969	880.862078229863	1082.561109346346	792.147373202396	989.291462102270	844.798939343232	773.469841299905	
